<svg width="50" height="50" viewBox="0 0 50 50" fill="none" xmlns="http://www.w3.org/2000/svg">
<circle cx="25" cy="25" r="24" fill="white" stroke="black" stroke-width="2"/>
<path d="M23.4138 14.5862C23.0387 14.2109 22.5301 14 21.9997 14C21.4694 14 20.9608 14.2109 20.5857 14.5862L11.5856 23.5965C11.2106 23.972 11 24.4812 11 25.0121C11 25.543 11.2106 26.0522 11.5856 26.4277L20.5857 35.4379C20.9629 35.8027 21.4681 36.0045 21.9925 35.9999C22.5169 35.9954 23.0186 35.7848 23.3894 35.4135C23.7602 35.0423 23.9706 34.5401 23.9751 34.0151C23.9797 33.4901 23.7781 32.9844 23.4138 32.6067L17.9997 27.0144H37C37.5304 27.0144 38.0391 26.8034 38.4142 26.4279C38.7893 26.0524 39 25.5431 39 25.0121C39 24.4811 38.7893 23.9718 38.4142 23.5963C38.0391 23.2208 37.5304 23.0098 37 23.0098H17.9997L23.4138 17.4175C23.7887 17.042 23.9993 16.5328 23.9993 16.0018C23.9993 15.4709 23.7887 14.9617 23.4138 14.5862Z" fill="black"/>
</svg>
