<svg width="50" height="50" viewBox="0 0 50 50" fill="none" xmlns="http://www.w3.org/2000/svg">
<circle cx="25" cy="25" r="24" transform="matrix(-1 0 0 1 50 0)" fill="white" stroke="black" stroke-width="2"/>
<path d="M26.5862 14.5862C26.9613 14.2109 27.4699 14 28.0003 14C28.5306 14 29.0392 14.2109 29.4143 14.5862L38.4144 23.5965C38.7894 23.972 39 24.4812 39 25.0121C39 25.543 38.7894 26.0522 38.4144 26.4277L29.4143 35.4379C29.0371 35.8027 28.5319 36.0045 28.0075 35.9999C27.4831 35.9954 26.9814 35.7848 26.6106 35.4135C26.2398 35.0423 26.0294 34.5401 26.0249 34.0151C26.0203 33.4901 26.2219 32.9844 26.5862 32.6067L32.0003 27.0144H13C12.4696 27.0144 11.9609 26.8034 11.5858 26.4279C11.2107 26.0524 11 25.5431 11 25.0121C11 24.4811 11.2107 23.9718 11.5858 23.5963C11.9609 23.2208 12.4696 23.0098 13 23.0098H32.0003L26.5862 17.4175C26.2113 17.042 26.0007 16.5328 26.0007 16.0018C26.0007 15.4709 26.2113 14.9617 26.5862 14.5862Z" fill="black"/>
</svg>
